# xmcd
#
# Track frame offsets:
# 150
# 12003
# 30062
# 44924
# 59243
# 74096
# 87615
# 105224
# 117560
# 133811
# 152105
# 169446
# 183187
# 199752
#
# Disc length: 2892 seconds
#
#
# Revision: 0
# Processed by: cddbd v1.5.2PL0 Copyright (c) Steve Scherf et al.
# Submitted via: FreeRIP 2.60 
#
DISCID=cc0b4a0e
DTITLE=Custom Kings - At Sea
DYEAR=2007
DGENRE=Alternative
TTITLE0=Up late
TTITLE1=Red Sails
TTITLE2=Crazy Drunk
TTITLE3=Number One
TTITLE4=No Lookin Back
TTITLE5=All The Leaves
TTITLE6=Rose Pickles
TTITLE7=Ocean
TTITLE8=Cheri
TTITLE9=Family
TTITLE10=Used To Be
TTITLE11=Hot Shot Boogie
TTITLE12=Rough Around The Edges
TTITLE13=Mind At Sea
EXTD=
EXTT0=
EXTT1=
EXTT2=
EXTT3=
EXTT4=
EXTT5=
EXTT6=
EXTT7=
EXTT8=
EXTT9=
EXTT10=
EXTT11=
EXTT12=
EXTT13=
PLAYORDER=
